<svg width="80" height="80" viewBox="0 0 80 80" fill="none" xmlns="http://www.w3.org/2000/svg">
<g id="Frame 99">
<rect width="80" height="80" rx="40" fill="#EEEEEE"/>
<g id="8-Email">
<path id="Vector" d="M53.9375 28H25.0625C24.5155 28 23.9909 28.2173 23.6041 28.6041C23.2173 28.9909 23 29.5155 23 30.0625V49.3125C23 49.8595 23.2173 50.3841 23.6041 50.7709C23.9909 51.1577 24.5155 51.375 25.0625 51.375H53.9375C54.4845 51.375 55.0091 51.1577 55.3959 50.7709C55.7827 50.3841 56 49.8595 56 49.3125V30.0625C56 29.5155 55.7827 28.9909 55.3959 28.6041C55.0091 28.2173 54.4845 28 53.9375 28ZM53.4975 29.375L39.5 40.1962L25.5025 29.375H53.4975ZM24.375 49.0306V30.2413L34.9694 38.4294L24.375 49.0306ZM25.3444 50L36.0625 39.2819L39.0737 41.6125C39.194 41.705 39.3414 41.7552 39.4931 41.7552C39.6448 41.7552 39.7923 41.705 39.9125 41.6125L42.9375 39.2819L53.6556 50H25.3444ZM54.625 49.0306L44.0306 38.4294L54.625 30.2413V49.0306Z" fill="black"/>
</g>
</g>
</svg>
