<svg width="82" height="82" viewBox="0 0 82 82" fill="none" xmlns="http://www.w3.org/2000/svg">
<g id="Frame 99">
<rect width="82" height="82" rx="41" fill="#EEEEEE"/>
<path id="Vector" d="M56.0981 47.9353L55.5684 48.4663L55.5686 48.4664L55.5694 48.4672L55.5725 48.4704L55.585 48.4828L55.6338 48.5316L55.8206 48.7182C55.9821 48.8797 56.2141 49.1119 56.4962 49.3948C57.0604 49.9605 57.8247 50.7284 58.6249 51.5376C60.2362 53.1669 61.962 54.9321 62.5214 55.5731C62.9471 56.0616 63.0394 56.5748 63.0273 56.9811C63.0211 57.1877 62.9875 57.3635 62.956 57.4852C62.9442 57.531 62.933 57.5682 62.9241 57.5953C62.875 57.6714 62.8262 57.747 62.7778 57.8221C61.9361 59.1284 61.1819 60.2988 59.8643 61.2207C58.4651 62.1998 56.3502 62.9431 52.6762 63.0278C49.026 63.029 45.2522 61.5183 41.636 59.1753C38.024 56.835 34.6273 53.7018 31.7509 50.5538L31.7358 50.5372L31.7196 50.5215C28.8499 47.7359 26.1066 44.5612 24.0858 41.231C22.0637 37.8988 20.794 34.4589 20.7949 31.1243C20.8805 27.4584 21.6257 25.3483 22.6068 23.9522C23.5309 22.6372 24.7041 21.8844 26.0132 21.0443C26.0885 20.996 26.1642 20.9474 26.2404 20.8984C26.2677 20.8895 26.3052 20.8783 26.3514 20.8664C26.4737 20.835 26.6503 20.8015 26.8578 20.7954C27.2662 20.7835 27.7814 20.8762 28.2707 21.3018L28.2711 21.3022C28.9129 21.8598 30.6813 23.5814 32.3137 25.189C33.1243 25.9874 33.8937 26.7499 34.4604 27.3128C34.7438 27.5943 34.9764 27.8258 35.1382 27.9869L35.3252 28.1733L35.3741 28.222L35.3866 28.2345L35.3897 28.2376L35.3905 28.2384L35.3907 28.2386L35.9205 27.7078L35.3907 28.2386L35.4146 28.2625L35.4381 28.282C35.4377 28.2817 35.4378 28.2818 35.4383 28.2822L35.4384 28.2823L35.4468 28.2896C35.4558 28.2975 35.4711 28.3114 35.4916 28.3307C35.5327 28.3695 35.5933 28.4297 35.6637 28.508C35.8066 28.6674 35.9774 28.8887 36.1086 29.148C36.3591 29.6426 36.4592 30.2303 35.9627 30.8939L35.9626 30.8941C34.8696 32.3564 32.3297 35.0755 31.9243 35.5095L31.9104 35.5245L31.545 35.9157L31.7963 36.3884L32.7803 38.2396L32.7906 38.259L32.802 38.2778C34.1349 40.4654 36.6966 44.3566 40.553 47.521C41.8654 48.598 43.6099 49.7113 45.0058 50.5457C45.7078 50.9653 46.3294 51.319 46.7758 51.5679C46.9991 51.6924 47.1788 51.7908 47.3032 51.8582C47.3468 51.8819 47.3837 51.9019 47.4134 51.9178C47.426 51.9245 47.4372 51.9306 47.4472 51.9359L47.4862 51.9567L47.4989 51.9634L47.5071 51.9676L47.5194 51.9738C47.5236 51.9759 47.5365 51.9819 47.5452 51.9859C47.5645 51.9939 47.8999 51.9099 48.1668 51.6415L48.3603 51.8497C48.9879 51.2661 51.5172 48.9306 52.9044 47.8958C53.5708 47.3992 54.1613 47.4993 54.6572 47.7495C54.9171 47.8805 55.1388 48.051 55.2983 48.1936C55.3768 48.2638 55.437 48.3243 55.4759 48.3653C55.4953 48.3857 55.5091 48.4011 55.5171 48.41L55.5229 48.4166L55.5233 48.4171L55.5239 48.4178L55.5243 48.4183L55.5244 48.4184C55.5249 48.419 55.525 48.4191 55.5247 48.4187L55.5443 48.4422L55.5683 48.4662L56.0981 47.9353ZM26.1893 20.9163C26.189 20.9164 26.189 20.9164 26.1894 20.9163L26.1893 20.9163Z" stroke="black" stroke-width="1.5"/>
</g>
</svg>
