<svg width="64" height="64" viewBox="0 0 64 64" fill="none" xmlns="http://www.w3.org/2000/svg">
<g id="Frame 105">
<rect x="0.5" y="0.5" width="63" height="63" rx="31.5" stroke="white"/>
<path id="Vector" d="M35.3333 25.6667V22.194C35.3333 20.6263 35.6698 19.8333 38.0339 19.8333H41V14H36.0505C29.9854 14 27.9844 16.862 27.9844 21.7747V25.6667H24V31.5H27.9844V49H35.3333V31.5H40.3271L41 25.6667H35.3333ZM39.0698 30.0417H35.4307H33.9167V31.4544V47.5417H29.401V31.4544V30.0417H28.0818H25.4167V27.125H28.0818H29.401V25.6211V21.7747C29.401 19.5417 29.8792 18.0195 30.7734 17.0534C31.7651 15.9596 33.5271 15.4583 36.0505 15.4583H39.5833V18.375H38.0339C36.9714 18.375 35.599 18.4753 34.749 19.4414C34.0318 20.2617 33.9167 21.2734 33.9167 22.1849V25.612V27.125H35.4307H39.4062L39.0698 30.0417Z" fill="white"/>
</g>
</svg>
