<svg width="64" height="64" viewBox="0 0 64 64" fill="none" xmlns="http://www.w3.org/2000/svg">
<g id="Frame 108">
<rect x="0.5" y="0.5" width="63" height="63" rx="31.5" stroke="#8E8E8E"/>
<path id="Vector" d="M42.9363 22.8787C42.9363 23.1295 42.8868 23.3779 42.7909 23.6096C42.695 23.8413 42.5541 24.0519 42.3769 24.2292C42.1995 24.4066 41.989 24.5472 41.7571 24.6432C41.5255 24.7392 41.2772 24.7886 41.0264 24.7886C40.7756 24.7886 40.5273 24.7392 40.2954 24.6432C40.0638 24.5472 39.8532 24.4066 39.6759 24.2292C39.4985 24.0519 39.3578 23.8413 39.2619 23.6096C39.1658 23.3779 39.1165 23.1295 39.1165 22.8787C39.1165 22.3722 39.3176 21.8864 39.6759 21.5283C40.0341 21.1701 40.5198 20.9689 41.0264 20.9689C41.5329 20.9689 42.0187 21.1701 42.3769 21.5283C42.735 21.8864 42.9363 22.3722 42.9363 22.8787ZM49 31.5V31.5247L48.8907 38.4465C48.8628 40.9428 47.8588 43.3291 46.0937 45.0944C44.3289 46.8599 41.9428 47.8643 39.4465 47.8927L32.5 48H32.4752L25.5535 47.8907C23.0572 47.8628 20.671 46.8588 18.9055 45.0939C17.1401 43.3289 16.1357 40.9428 16.1072 38.4465L16 31.5V31.4752L16.1093 24.5535C16.1372 22.0572 17.1411 19.671 18.9061 17.9055C20.6712 16.1401 23.0572 15.1357 25.5535 15.1073L32.5 15H32.5247L39.4465 15.1093C41.9428 15.1372 44.3291 16.1411 46.0944 17.9061C47.8599 19.6712 48.8643 22.0572 48.8927 24.5535L49 31.5ZM45.9269 31.5L45.8196 24.6009C45.8002 22.9041 45.1176 21.2822 43.9178 20.0822C42.7178 18.8823 41.0959 18.1997 39.3991 18.1804L32.5 18.0731L25.6009 18.1804C23.9041 18.1997 22.2822 18.8823 21.0822 20.0822C19.8823 21.2822 19.1997 22.9041 19.1804 24.6009L19.0731 31.5L19.1804 38.3991C19.1997 40.0959 19.8823 41.7178 21.0822 42.9178C22.2822 44.1178 23.9041 44.8002 25.6009 44.8196L32.5 44.9269L39.3991 44.8196C41.0959 44.8002 42.7178 44.1178 43.9178 42.9178C45.1176 41.7178 45.8002 40.0959 45.8196 38.3991L45.9269 31.5ZM40.9728 31.5C40.9728 33.7471 40.0801 35.9022 38.4912 37.4912C36.9022 39.0801 34.7471 39.9728 32.5 39.9728C30.2529 39.9728 28.0978 39.0801 26.5088 37.4912C24.9199 35.9022 24.0272 33.7471 24.0272 31.5C24.0272 29.2529 24.9199 27.0978 26.5088 25.5088C28.0978 23.9199 30.2529 23.0272 32.5 23.0272C34.7471 23.0272 36.9022 23.9199 38.4912 25.5088C40.0801 27.0978 40.9728 29.2529 40.9728 31.5ZM37.8996 31.5C37.8996 30.0679 37.3308 28.6945 36.3181 27.6819C35.3055 26.6693 33.932 26.1004 32.5 26.1004C31.0679 26.1004 29.6945 26.6693 28.6819 27.6819C27.6692 28.6945 27.1004 30.0679 27.1004 31.5C27.1004 32.932 27.6692 34.3054 28.6819 35.3181C29.6945 36.3308 31.0679 36.8996 32.5 36.8996C33.932 36.8996 35.3055 36.3308 36.3181 35.3181C37.3308 34.3054 37.8996 32.932 37.8996 31.5Z" fill="white"/>
</g>
</svg>
