<svg width="64" height="64" viewBox="0 0 64 64" fill="none" xmlns="http://www.w3.org/2000/svg">
<rect x="0.5" y="0.5" width="63" height="63" rx="31.5" stroke="white"/>
<path d="M26.333 41.9167H22.083V27.75H26.333V41.9167ZM41.9163 41.9167H37.6663V34.3488C37.6663 32.3768 36.9637 31.3951 35.5711 31.3951C34.4675 31.3951 33.7677 31.9448 33.4163 33.0455C33.4163 34.8333 33.4163 41.9167 33.4163 41.9167H29.1663C29.1663 41.9167 29.223 29.1667 29.1663 27.75H32.521L32.7803 30.5833H32.8681C33.7393 29.1667 35.1319 28.2062 37.0416 28.2062C38.4937 28.2062 39.6681 28.6099 40.5648 29.6243C41.4673 30.64 41.9163 32.0028 41.9163 33.9167V41.9167Z" fill="white"/>
<path d="M24.2085 26.3333C25.4213 26.3333 26.4044 25.3819 26.4044 24.2083C26.4044 23.0346 25.4213 22.0833 24.2085 22.0833C22.9958 22.0833 22.0127 23.0346 22.0127 24.2083C22.0127 25.3819 22.9958 26.3333 24.2085 26.3333Z" fill="#717171"/>
</svg>
