<svg width="79" height="79" viewBox="0 0 79 79" fill="none" xmlns="http://www.w3.org/2000/svg">
<g id="7695999_envelope_letter_mail_message_paper_icon 1">
<g id="Layer_x0020_1">
<path id="Vector" d="M74.022 69.0609C74.022 74.0454 69.9519 78.1155 64.9674 78.1155H14.0326C9.04805 78.1155 4.97797 74.0454 4.97797 69.0609V28.0987C4.97797 27.425 5.32321 26.8316 5.84666 26.4864L16.6433 18.1092V6.01277C16.6433 4.9472 17.5073 4.08223 18.5738 4.08223H34.7198L38.3234 1.2858C39.0428 0.730615 40.0309 0.763272 40.7083 1.31099L44.2802 4.08223H60.4261C61.4926 4.08223 62.3576 4.9472 62.3576 6.01277V18.1092L73.241 26.5545C73.73 26.9184 74.0164 27.4932 74.0164 28.0987L74.022 69.0609ZM30.5061 17.6501C27.9671 17.6501 27.9671 13.789 30.5061 13.789H48.4939C51.0328 13.789 51.0328 17.6501 48.4939 17.6501H30.5061ZM30.5061 35.9935C27.9671 35.9935 27.9671 32.1324 30.5061 32.1324H48.4939C51.0328 32.1324 51.0328 35.9935 48.4939 35.9935H30.5061ZM30.5061 26.8223C27.9671 26.8223 27.9671 22.9603 30.5061 22.9603H48.4939C51.0328 22.9603 51.0328 26.8223 48.4939 26.8223H30.5061ZM16.6433 22.9817L10.0483 28.0987L16.6433 33.2157V22.9817ZM20.5044 36.2128L39.5 50.9526L58.4956 36.2128V7.94424H20.5044V36.2128ZM62.3576 33.2157L68.9517 28.0987L62.3576 22.9817V33.2157ZM8.83904 32.0335V69.0609C8.83904 71.9133 11.1801 74.2544 14.0326 74.2544H26.2298L37.0357 53.9133C27.6368 46.6203 18.2379 39.3265 8.83904 32.0335ZM41.9643 53.9133L52.7702 74.2544H64.9674C67.8199 74.2544 70.1609 71.9133 70.1609 69.0609V32.0335C60.7621 39.3265 51.3632 46.6203 41.9643 53.9133ZM48.3997 74.2544L39.5 57.5028L30.6003 74.2544H48.3997Z" fill="white"/>
</g>
</g>
</svg>
