<svg width="99" height="99" viewBox="0 0 99 99" fill="none" xmlns="http://www.w3.org/2000/svg">
<g id="976604_appliances_cell phone_cellphone_mobile_mobilephone_icon 1">
<path id="Vector" d="M66.5156 9.28125H32.4844C30.4331 9.28125 28.4658 10.0961 27.0153 11.5466C25.5649 12.9971 24.75 14.9643 24.75 17.0156V81.9844C24.75 84.0357 25.5649 86.0029 27.0153 87.4534C28.4658 88.9039 30.4331 89.7188 32.4844 89.7188H66.5156C67.5313 89.7188 68.5371 89.5187 69.4754 89.13C70.4138 88.7413 71.2665 88.1716 71.9847 87.4534C72.7029 86.7352 73.2726 85.8826 73.6613 84.9442C74.0499 84.0058 74.25 83.0001 74.25 81.9844V17.0156C74.25 15.9999 74.0499 14.9942 73.6613 14.0558C73.2726 13.1174 72.7029 12.2648 71.9847 11.5466C71.2665 10.8284 70.4138 10.2587 69.4754 9.86999C68.5371 9.48131 67.5313 9.28125 66.5156 9.28125ZM71.1562 81.9844C71.1562 83.2151 70.6673 84.3955 69.797 85.2658C68.9268 86.1361 67.7464 86.625 66.5156 86.625H32.4844C31.2536 86.625 30.0732 86.1361 29.203 85.2658C28.3327 84.3955 27.8438 83.2151 27.8438 81.9844V17.0156C27.8438 15.7849 28.3327 14.6045 29.203 13.7342C30.0732 12.8639 31.2536 12.375 32.4844 12.375H66.5156C67.7464 12.375 68.9268 12.8639 69.797 13.7342C70.6673 14.6045 71.1562 15.7849 71.1562 17.0156V81.9844Z" fill="white"/>
<path id="Vector_2" d="M30.9375 74.25H68.0625V21.6562H30.9375V74.25ZM34.0312 24.75H64.9688V71.1562H34.0312V24.75Z" fill="white"/>
<path id="Vector_3" d="M49.5 83.5312C51.2086 83.5312 52.5938 82.1461 52.5938 80.4375C52.5938 78.7289 51.2086 77.3438 49.5 77.3438C47.7914 77.3438 46.4062 78.7289 46.4062 80.4375C46.4062 82.1461 47.7914 83.5312 49.5 83.5312Z" fill="white"/>
<path id="Vector_4" d="M55.6875 15.4688H43.3125V18.5625H55.6875V15.4688Z" fill="white"/>
</g>
</svg>
