<svg width="64" height="64" viewBox="0 0 64 64" fill="none" xmlns="http://www.w3.org/2000/svg">
<g id="Frame 109">
<rect x="0.5" y="0.5" width="63" height="63" rx="31.5" stroke="#8E8E8E"/>
<path id="Vector" d="M49.2688 23.7477C48.8664 22.2724 47.6805 21.1108 46.1745 20.7165C43.4448 20 32.5 20 32.5 20C32.5 20 21.5552 20 18.8255 20.7165C17.3198 21.1108 16.1337 22.2724 15.7312 23.7477C15 26.4214 15 32.0002 15 32.0002C15 32.0002 15 37.5789 15.7312 40.2523C16.1337 41.7276 17.3198 42.8895 18.8255 43.2837C21.5552 44 32.5 44 32.5 44C32.5 44 43.4448 44 46.1745 43.2837C47.6805 42.8895 48.8664 41.7276 49.2688 40.2523C50 37.5789 50 32.0002 50 32.0002C50 32.0002 50 26.4214 49.2688 23.7477ZM28.9998 37.1431V26.8572L38.0929 32.0002L28.9998 37.1431Z" fill="white"/>
</g>
</svg>
