<svg width="34" height="34" viewBox="0 0 34 34" fill="none" xmlns="http://www.w3.org/2000/svg">
<path d="M11.334 26.9167H7.08398V12.75H11.334V26.9167ZM26.9173 26.9167H22.6673V19.3488C22.6673 17.3768 21.9647 16.3951 20.5721 16.3951C19.4685 16.3951 18.7687 16.9448 18.4173 18.0455C18.4173 19.8333 18.4173 26.9167 18.4173 26.9167H14.1673C14.1673 26.9167 14.224 14.1667 14.1673 12.75H17.522L17.7812 15.5833H17.8691C18.7403 14.1667 20.1329 13.2062 22.0426 13.2062C23.4947 13.2062 24.6691 13.6099 25.5658 14.6243C26.4682 15.64 26.9173 17.0028 26.9173 18.9167V26.9167Z" fill="white"/>
<path d="M9.20755 11.3333C10.4203 11.3333 11.4034 10.3819 11.4034 9.20825C11.4034 8.03465 10.4203 7.08325 9.20755 7.08325C7.99483 7.08325 7.01172 8.03465 7.01172 9.20825C7.01172 10.3819 7.99483 11.3333 9.20755 11.3333Z" fill="white"/>
</svg>
