<svg width="64" height="64" viewBox="0 0 64 64" fill="none" xmlns="http://www.w3.org/2000/svg">
<circle cx="32" cy="32" r="32" fill="#D9D9D9"/>
<mask id="mask0_0_16" style="mask-type:alpha" maskUnits="userSpaceOnUse" x="-1" y="0" width="65" height="64">
<circle cx="31.998" cy="32" r="32" fill="#F6F6F6"/>
</mask>
<g mask="url(#mask0_0_16)">
<path d="M32.6328 42.1797C39.2609 42.1797 44.6328 36.8078 44.6328 30.1797C44.6328 23.5516 39.2609 18.1797 32.6328 18.1797C26.0047 18.1797 20.6328 23.5516 20.6328 30.1797C20.6328 36.8078 26.0047 42.1797 32.6328 42.1797ZM41.0328 45.1797H39.4672C37.3859 46.1359 35.0703 46.6797 32.6328 46.6797C30.1953 46.6797 27.8891 46.1359 25.7984 45.1797H24.2328C17.2766 45.1797 11.6328 50.8234 11.6328 57.7797V61.6797C11.6328 64.1641 13.6484 66.1797 16.1328 66.1797H49.1328C51.6172 66.1797 53.6328 64.1641 53.6328 61.6797V57.7797C53.6328 50.8234 47.9891 45.1797 41.0328 45.1797Z" fill="#FAFAFA"/>
</g>
</svg>
