<svg width="64" height="64" viewBox="0 0 64 64" fill="none" xmlns="http://www.w3.org/2000/svg">
<rect x="0.5" y="0.5" width="63" height="63" rx="31.5" stroke="#F5F5F5"/>
<path d="M44.3855 22.2772C45.8796 21.36 46.8689 20.1081 47.3534 18.5159C45.8999 19.287 44.452 19.8159 43.006 20.1081C41.706 18.7101 40.0602 18 38.0871 18C36.1584 18 34.5293 18.6768 33.1997 19.9934C31.8775 21.3193 31.21 22.9299 31.21 24.8106C31.21 25.382 31.2821 25.8923 31.4263 26.325C25.7382 26.1309 21.0302 23.7713 17.3207 19.2297C16.692 20.3411 16.3776 21.4728 16.3776 22.6433C16.3776 25.0491 17.3928 26.9556 19.4196 28.3555C18.2638 28.2574 17.2449 27.9653 16.3776 27.4863C16.3776 29.2042 16.8825 30.6392 17.894 31.9022C18.9092 33.1523 20.2129 33.9493 21.805 34.2895C21.2281 34.4374 20.6197 34.5077 19.9947 34.5077C19.4177 34.5077 19.009 34.4596 18.7668 34.3542C19.1921 35.7541 19.9947 36.8895 21.1541 37.7586C22.3098 38.6314 23.6394 39.0918 25.1336 39.1325C22.6704 41.0649 19.8541 42.021 16.668 42.021C15.8876 42.021 15.3347 42.0099 15 41.9507C18.1381 43.9885 21.6312 45 25.496 45C29.4514 45 32.9464 43.9977 35.9883 41.9932C39.0302 39.9998 41.2751 37.5404 42.7175 34.6445C44.1672 31.7524 44.8847 28.7419 44.8847 25.5983V24.7329C46.2864 23.6789 47.42 22.4917 48.2872 21.1806C47.0298 21.7224 45.7298 22.0904 44.3855 22.2772Z" fill="white"/>
</svg>
