<svg width="12" height="15" viewBox="0 0 12 15" fill="none" xmlns="http://www.w3.org/2000/svg">
<g clip-path="url(#clip0_3773_813)">
<rect width="15" height="12" transform="matrix(0 1 -1 0 12 0)" fill="white"/>
<path d="M2.57959 7.49996C2.57959 7.23113 2.6617 6.96234 2.82559 6.75738L7.98537 0.307712C8.3136 -0.102571 8.84576 -0.102571 9.17385 0.307712C9.50195 0.717829 9.50195 1.3829 9.17385 1.79322L4.60819 7.49996L9.17369 13.2067C9.50179 13.617 9.50179 14.282 9.17369 14.6921C8.8456 15.1026 8.31344 15.1026 7.98521 14.6921L2.82543 8.24255C2.66152 8.03749 2.57959 7.76869 2.57959 7.49996Z" fill="#7D7D7D"/>
</g>
<defs>
<clipPath id="clip0_3773_813">
<rect width="15" height="12" fill="white" transform="matrix(0 1 -1 0 12 0)"/>
</clipPath>
</defs>
</svg>
